<svg xmlns="http://www.w3.org/2000/svg" xmlns:xlink="http://www.w3.org/1999/xlink" version="1.1"  x="0px" y="0px" width="32" height="32" viewBox="0 0 24 24" style="enable-background:new 0 0 24 24;" xml:space="preserve" viewbox="0 0 32 32">

<rect class="st2" width="24" height="24" style="fill:none;;"></rect>
<path id="582244942_shock_x5F_color" class="stshockcolor" d="M11,22c-3.316,0-6-2.684-6-6c0-0.75,0-6,0-7c0-3.866,3.134-7,7-7s7,3.134,7,7c0,1,0,4,0,5  c0,2.211-1.789,4-4,4h-4c-1.105,0-2-0.895-2-2c0,0,0-5.343,0-7s1.343-3,3-3s3,1.343,3,3c0,0.668,0,5,0,5h-2c0,0,0-4.447,0-5  c0-0.552-0.447-1-1-1c-0.553,0-1,0.448-1,1c0,0.792,0,7,0,7h4c1.105,0,2-0.895,2-2c0-1,0-3.958,0-5c0-2.761-2.238-5-5-5  C9.238,4,7,6.239,7,9c0,2.083,0,6.389,0,7c0,2.211,1.789,4,4,4c0.444,0,7,0,7,0c0,1.105-0.895,2-2,2C15.333,22,11.44,22,11,22z" style="fill:#29B6F6;;" data-st="fill:#29B6F6;;"></path>
<rect x="2" y="6" class="st0" width="20" height="12" style="opacity:0.4;fill:#EC407A;;"></rect>
</svg>